<?xml version="1.0" standalone="no"?>
<!DOCTYPE svg PUBLIC "-//W3C//DTD SVG 20010904//EN"
 "http://www.w3.org/TR/2001/REC-SVG-20010904/DTD/svg10.dtd">
<svg version="1.0" xmlns="http://www.w3.org/2000/svg"
 width="4977.000000pt" height="4976.000000pt" viewBox="0 0 4977.000000 4976.000000"
 preserveAspectRatio="xMidYMid meet">

<g transform="translate(0.000000,4976.000000) scale(0.100000,-0.100000)"
fill="#20C20E" stroke="none">
<path d="M9010 48269 c-189 -14 -420 -70 -600 -146 -19 -8 -44 -18 -55 -23
-99 -40 -368 -187 -432 -236 -17 -13 -34 -24 -37 -24 -8 0 -136 -91 -210 -149
-221 -173 -401 -346 -1046 -1006 -107 -110 -319 -326 -470 -480 -152 -154
-478 -487 -725 -740 -248 -253 -576 -588 -730 -745 -916 -932 -936 -954 -1116
-1175 -70 -86 -189 -251 -189 -262 0 -3 -11 -21 -25 -39 -14 -18 -25 -35 -25
-38 0 -3 -11 -22 -25 -42 -34 -49 -175 -337 -175 -355 0 -8 -4 -19 -9 -24 -9
-11 -51 -131 -74 -215 -44 -157 -57 -235 -69 -408 -17 -258 9 -504 81 -742 81
-269 238 -573 440 -855 156 -217 215 -284 956 -1070 165 -175 336 -357 380
-405 44 -47 224 -238 400 -425 176 -186 358 -379 405 -430 98 -106 509 -543
649 -691 53 -55 188 -199 301 -319 113 -121 284 -303 380 -405 96 -102 207
-219 245 -260 144 -155 534 -569 635 -675 58 -61 202 -214 320 -340 119 -127
362 -385 540 -575 179 -189 359 -381 401 -426 124 -133 516 -551 629 -669 58
-60 135 -142 170 -180 36 -39 140 -149 231 -245 91 -96 201 -214 245 -261 43
-47 185 -198 314 -335 129 -137 302 -321 385 -409 82 -88 191 -203 240 -255
50 -52 122 -129 160 -170 70 -75 650 -693 775 -825 37 -38 145 -153 241 -255
356 -379 638 -680 790 -840 85 -91 227 -241 315 -334 87 -93 195 -208 239
-256 114 -123 520 -555 645 -685 58 -61 235 -250 395 -420 159 -171 333 -355
385 -410 52 -55 125 -131 161 -170 36 -38 139 -149 230 -245 90 -96 200 -213
244 -260 44 -47 120 -128 170 -180 49 -52 151 -160 225 -240 127 -135 282
-301 629 -669 312 -332 478 -508 519 -553 l42 -48 0 -796 0 -796 -31 -37 c-17
-20 -62 -67 -98 -106 -37 -38 -145 -153 -241 -255 -95 -102 -203 -216 -239
-255 -37 -38 -136 -144 -221 -235 -85 -91 -231 -246 -325 -345 -94 -99 -202
-214 -240 -255 -108 -116 -838 -893 -945 -1005 -87 -92 -312 -330 -470 -500
-36 -38 -142 -151 -235 -250 -94 -99 -300 -319 -460 -490 -159 -170 -337 -359
-395 -420 -58 -60 -243 -256 -410 -435 -168 -179 -348 -370 -400 -425 -103
-109 -313 -332 -540 -574 -80 -85 -224 -238 -320 -341 -96 -102 -269 -287
-385 -411 -115 -123 -260 -276 -320 -339 -61 -63 -241 -254 -400 -425 -160
-170 -335 -357 -390 -415 -124 -130 -378 -399 -550 -585 -72 -77 -173 -185
-226 -240 -53 -55 -138 -145 -189 -200 -316 -338 -519 -554 -615 -655 -61 -63
-245 -259 -410 -435 -604 -644 -800 -852 -875 -930 -42 -44 -184 -195 -315
-335 -232 -248 -393 -419 -714 -760 -86 -91 -183 -194 -216 -230 -34 -36 -139
-148 -235 -250 -97 -102 -207 -219 -245 -260 -39 -42 -214 -228 -390 -415
-176 -187 -351 -373 -390 -415 -38 -41 -113 -120 -165 -175 -52 -55 -198 -210
-325 -345 -126 -135 -300 -319 -386 -410 -367 -390 -443 -474 -618 -690 -47
-59 -182 -260 -240 -360 -134 -229 -257 -518 -291 -690 -4 -19 -18 -82 -30
-140 -21 -93 -23 -132 -23 -350 0 -217 3 -257 23 -350 12 -58 26 -123 31 -145
36 -179 187 -524 310 -709 21 -32 39 -60 39 -63 0 -6 111 -162 169 -237 106
-135 271 -317 521 -571 146 -148 357 -364 470 -480 113 -115 324 -331 470
-480 147 -148 484 -493 750 -765 1041 -1064 1452 -1481 1585 -1604 95 -89 192
-171 342 -292 43 -35 246 -174 289 -198 16 -9 52 -30 79 -46 51 -30 259 -134
305 -152 14 -6 39 -16 55 -24 66 -29 252 -85 345 -102 30 -6 84 -17 120 -24
88 -17 423 -17 520 0 183 33 338 76 445 122 243 106 380 186 595 346 231 172
418 358 880 874 91 102 197 218 235 260 39 42 192 210 340 375 149 165 319
353 379 420 60 66 166 183 235 260 69 76 155 171 191 210 36 39 144 158 240
265 96 107 267 296 380 420 113 125 279 309 370 411 91 101 197 218 235 259
39 42 129 141 200 220 72 79 177 196 235 260 58 64 227 250 375 415 149 164
362 400 475 525 113 124 327 361 475 525 149 164 317 351 375 415 277 306 373
412 571 631 118 129 288 318 379 419 91 101 208 231 261 289 100 109 315 347
784 866 149 164 362 401 475 525 113 124 327 361 475 525 149 164 360 398 470
519 110 122 220 244 245 272 25 27 236 261 470 519 234 258 450 496 480 531
64 72 417 463 710 785 113 124 304 335 425 469 213 236 308 342 892 986 150
166 303 339 340 385 100 124 296 410 354 516 22 42 36 66 60 103 9 14 50 90
91 170 239 459 286 549 309 582 11 14 19 29 19 32 0 22 228 364 302 453 98
117 221 192 388 239 57 16 106 18 405 18 319 0 345 -1 420 -22 167 -46 304
-134 387 -249 13 -17 55 -76 94 -130 70 -95 185 -282 260 -420 20 -37 48 -88
62 -113 14 -25 71 -135 127 -245 110 -216 119 -232 203 -375 94 -160 171 -279
265 -410 120 -167 104 -149 622 -720 68 -74 216 -238 330 -365 115 -126 267
-295 339 -374 72 -79 153 -169 180 -200 27 -31 88 -99 136 -151 48 -52 138
-151 200 -220 241 -267 369 -408 470 -520 58 -63 125 -138 149 -165 25 -28 84
-93 131 -145 48 -52 138 -151 200 -220 62 -69 168 -186 235 -260 386 -426 558
-616 710 -785 94 -104 202 -223 240 -265 39 -42 144 -159 235 -260 91 -101
197 -218 235 -260 39 -42 147 -161 240 -265 94 -104 202 -223 240 -265 39 -42
144 -159 235 -260 91 -101 197 -218 235 -260 39 -42 147 -161 240 -265 94
-104 199 -221 235 -260 36 -39 142 -156 235 -260 94 -104 202 -223 240 -265
39 -42 147 -161 240 -265 94 -104 264 -293 379 -420 115 -126 264 -291 331
-365 67 -74 173 -191 235 -260 62 -69 168 -186 235 -260 67 -74 171 -189 231
-255 60 -67 170 -188 244 -270 74 -82 184 -203 244 -269 60 -67 164 -182 231
-256 386 -426 558 -616 710 -785 94 -104 202 -223 240 -265 39 -42 147 -161
240 -265 94 -104 199 -221 235 -260 36 -39 142 -156 235 -260 94 -104 202
-224 240 -265 39 -42 147 -161 240 -265 94 -104 199 -221 235 -260 36 -39 142
-156 235 -260 94 -104 202 -224 240 -265 39 -42 147 -161 240 -265 94 -104
213 -237 265 -295 148 -164 406 -425 501 -505 208 -177 398 -306 598 -405 171
-85 224 -106 391 -153 52 -15 80 -21 210 -47 189 -38 580 -12 774 50 145 46
255 84 276 95 14 7 48 23 75 35 97 42 121 54 183 92 34 21 65 38 68 38 20 0
303 195 419 289 253 205 314 264 1305 1276 340 347 1190 1215 1400 1430 102
105 314 321 471 480 712 725 788 807 955 1035 77 105 164 235 164 246 0 4 6
15 14 23 15 16 152 285 172 337 59 151 105 299 122 394 6 30 18 93 26 140 22
116 22 442 1 560 -25 136 -37 192 -52 245 -8 28 -19 68 -25 90 -6 22 -21 66
-34 98 -13 32 -24 62 -24 67 0 21 -132 292 -176 362 -13 21 -24 40 -24 44 0
22 -230 344 -337 474 -134 161 -224 258 -929 1005 -89 94 -199 211 -245 261
-46 50 -228 243 -404 429 -176 187 -356 378 -400 425 -79 85 -396 423 -709
755 -88 94 -226 240 -306 325 -80 85 -218 232 -306 325 -88 94 -196 208 -239
255 -44 47 -147 157 -230 245 -380 403 -535 567 -731 775 -115 124 -356 380
-535 570 -546 580 -790 840 -873 929 -44 47 -150 160 -235 251 -349 368 -510
539 -581 616 -111 119 -529 564 -639 680 -53 55 -188 199 -301 319 -113 121
-284 303 -380 405 -96 102 -245 259 -330 350 -192 205 -244 260 -457 485 -93
99 -207 221 -253 270 -46 50 -151 162 -234 250 -188 199 -767 813 -861 915
-38 41 -148 158 -245 260 -96 102 -204 217 -240 255 -73 79 -286 305 -526 560
-88 94 -236 251 -329 350 -93 99 -201 214 -240 255 -40 41 -220 233 -400 425
-181 193 -394 420 -475 505 -80 85 -254 270 -385 410 -132 140 -271 289 -310
330 -189 199 -397 421 -448 476 l-57 62 0 798 1 799 162 170 c89 94 254 269
367 390 113 120 248 264 301 319 145 153 552 587 654 696 50 54 164 176 254
271 205 217 258 273 451 479 85 91 234 248 330 350 96 102 267 284 380 405
113 120 248 264 301 319 129 136 541 574 659 701 52 57 232 248 400 426 168
177 343 363 389 413 46 50 156 168 245 261 246 261 677 720 940 1000 78 82
184 195 236 250 52 55 194 206 315 335 121 129 299 318 395 420 96 102 207
219 245 260 66 71 510 543 870 925 88 94 225 240 305 325 80 85 185 198 235
250 50 52 122 129 160 170 39 42 214 228 390 414 176 187 356 378 400 426 95
102 818 871 955 1015 52 55 158 168 235 250 77 83 183 195 235 250 52 55 158
168 235 250 152 162 591 629 715 760 41 44 250 267 465 495 214 228 433 460
485 515 53 55 221 235 375 400 154 165 325 347 381 405 417 434 633 722 812
1085 62 125 92 193 92 207 0 8 4 18 8 23 10 11 33 75 52 145 7 25 18 65 25 90
13 47 23 96 50 240 21 117 21 433 -1 555 -29 170 -36 200 -61 285 -119 401
-332 763 -681 1160 -41 47 -203 216 -361 375 -157 160 -369 376 -471 480 -295
303 -1403 1433 -1935 1975 -154 157 -379 386 -500 510 -228 234 -406 402 -560
531 -366 304 -792 532 -1145 612 -131 30 -178 37 -307 47 -138 10 -380 -1
-437 -20 -16 -6 -40 -10 -54 -10 -14 0 -39 -4 -56 -10 -17 -5 -58 -17 -91 -26
-278 -76 -569 -235 -880 -481 -117 -93 -417 -386 -556 -543 -46 -53 -174 -195
-284 -316 -110 -121 -319 -353 -465 -514 -146 -162 -296 -328 -335 -370 -38
-41 -146 -160 -240 -264 -93 -104 -262 -291 -375 -416 -660 -729 -1087 -1202
-1424 -1574 -143 -159 -355 -393 -471 -521 -115 -127 -329 -363 -475 -525
-146 -161 -357 -395 -470 -520 -113 -124 -326 -360 -475 -525 -148 -164 -362
-400 -475 -525 -113 -124 -326 -360 -475 -525 -148 -164 -362 -400 -475 -525
-113 -124 -306 -338 -430 -475 -124 -137 -337 -374 -475 -525 -137 -152 -349
-386 -470 -520 -121 -135 -249 -276 -285 -315 -36 -39 -164 -180 -285 -314
-121 -135 -290 -321 -375 -416 -85 -94 -234 -258 -330 -365 -96 -107 -220
-244 -276 -305 -136 -149 -550 -607 -819 -905 -121 -134 -335 -370 -475 -525
-140 -155 -354 -391 -475 -525 -257 -285 -381 -422 -561 -621 -298 -327 -443
-519 -614 -814 -29 -49 -61 -106 -72 -125 -31 -53 -91 -167 -188 -355 -48 -93
-99 -191 -113 -216 -14 -25 -37 -66 -50 -90 -40 -75 -79 -142 -105 -184 -14
-22 -30 -49 -36 -60 -46 -84 -184 -273 -247 -336 -85 -86 -153 -133 -249 -171
-124 -49 -141 -51 -475 -55 -271 -4 -333 -2 -405 12 -47 9 -94 20 -105 25 -11
4 -42 17 -69 28 -82 33 -199 125 -267 209 -135 166 -295 428 -472 773 -128
251 -239 455 -292 541 -5 9 -18 32 -29 50 -92 168 -322 482 -460 629 -34 36
-158 173 -277 305 -119 132 -326 361 -460 509 -134 148 -275 304 -314 347
-223 248 -844 934 -999 1104 -51 55 -130 143 -176 195 -47 52 -154 172 -239
265 -311 344 -669 739 -986 1090 -148 164 -385 425 -525 580 -140 155 -354
391 -475 525 -121 134 -335 370 -475 525 -140 155 -354 391 -475 525 -276 305
-502 556 -660 730 -67 74 -212 234 -321 355 -109 121 -262 290 -339 375 -78
85 -179 197 -226 249 -46 52 -95 106 -109 121 -14 16 -99 110 -190 211 -91
101 -196 217 -235 259 -38 42 -146 161 -240 265 -152 169 -326 361 -710 785
-67 74 -216 239 -331 366 -115 127 -330 365 -479 529 -148 164 -319 353 -379
419 -136 151 -292 324 -567 627 -118 129 -288 318 -379 419 -91 102 -196 218
-235 260 -38 42 -146 161 -240 265 -93 104 -264 293 -379 420 -115 126 -265
293 -335 370 -211 234 -270 296 -370 393 -397 385 -789 622 -1206 725 -112 28
-170 37 -300 47 -143 10 -137 10 -285 -1z m26675 -10669 c51 -25 107 -77 327
-298 305 -307 325 -334 316 -447 -4 -43 -14 -77 -33 -111 -19 -33 -348 -370
-1017 -1039 -543 -545 -988 -997 -988 -1005 0 -16 1619 -1640 1635 -1640 13 0
1315 1302 1315 1315 0 5 -173 183 -384 395 -257 257 -392 400 -407 430 -17 33
-23 62 -24 110 0 111 19 137 338 458 315 316 350 342 456 342 117 0 126 -7
648 -531 293 -295 484 -495 506 -529 68 -109 80 -181 97 -560 19 -437 11 -560
-44 -668 -18 -34 -284 -306 -998 -1018 -914 -912 -977 -973 -1034 -997 -127
-53 -220 -55 -799 -22 -246 14 -296 24 -393 81 -29 17 -409 387 -964 938 -505
501 -922 912 -928 914 -7 3 -120 -104 -253 -236 -278 -275 -310 -297 -421
-290 -38 2 -79 12 -106 27 -29 14 -142 119 -314 289 -297 296 -326 335 -326
438 0 107 34 154 309 429 122 121 221 226 221 234 0 7 -124 138 -275 290 -308
311 -332 344 -323 444 10 105 29 129 367 468 349 350 376 371 481 372 118 1
123 -4 655 -534 564 -562 506 -524 625 -404 l75 76 -3 92 c-1 51 -9 162 -17
247 -19 194 -19 359 -1 427 33 125 46 139 733 824 356 355 662 654 678 664
106 66 175 72 270 25z m-6411 -3564 c162 -41 305 -80 318 -87 51 -27 126 -111
147 -162 11 -29 50 -173 87 -322 73 -298 77 -340 33 -425 -31 -61 -477 -508
-539 -540 -87 -44 -133 -40 -455 40 -290 71 -331 86 -393 144 -56 52 -79 114
-153 413 -78 315 -80 342 -37 432 24 50 334 373 467 488 75 64 133 91 198 92
17 1 164 -32 327 -73z m1366 -1429 c20 -6 60 -30 90 -51 30 -22 574 -557 1207
-1190 l1153 -1151 422 421 c490 488 510 504 627 504 108 0 143 -26 442 -327
171 -173 274 -284 288 -313 13 -25 26 -71 29 -102 10 -114 20 -103 -661 -785
-684 -685 -644 -652 -821 -680 -75 -11 -134 -12 -331 -3 -445 20 -546 28 -608
49 -135 47 -118 31 -1072 983 -501 499 -915 908 -920 908 -6 0 -204 -194 -440
-431 -237 -237 -465 -457 -508 -489 -85 -64 -144 -84 -212 -71 -91 18 -124 45
-407 329 -304 304 -328 336 -328 439 0 58 10 85 57 158 38 60 1710 1730 1768
1767 22 13 51 30 65 36 34 15 117 14 160 -1z m-3225 -3342 c28 -8 124 -35 215
-59 171 -47 537 -147 790 -217 130 -36 354 -97 435 -119 17 -4 82 -22 145 -40
197 -55 361 -100 478 -131 62 -16 133 -38 158 -47 92 -36 202 -147 237 -238 9
-23 37 -117 62 -210 26 -93 65 -234 87 -314 22 -80 48 -174 58 -210 10 -36 35
-123 54 -195 137 -498 153 -556 333 -1200 14 -49 32 -126 40 -169 13 -72 13
-86 -2 -145 -9 -36 -32 -91 -50 -121 -23 -37 -322 -343 -932 -952 -975 -974
-940 -942 -1080 -969 -55 -11 -72 -10 -150 8 -78 18 -337 89 -478 129 -27 8
-81 23 -120 34 -38 10 -113 31 -165 45 -52 15 -133 37 -180 50 -47 13 -121 33
-165 45 -44 13 -118 33 -165 46 -47 12 -134 36 -195 53 -60 17 -144 40 -185
52 -41 11 -104 29 -140 39 -36 10 -141 39 -235 65 -215 59 -267 79 -332 127
-94 69 -141 147 -184 305 -26 98 -57 208 -109 398 -39 140 -64 229 -110 400
-35 128 -68 248 -110 400 -23 83 -55 200 -71 260 -17 61 -37 135 -45 165 -9
30 -26 93 -39 140 -13 47 -33 119 -44 160 -57 202 -73 285 -67 342 7 66 30
130 63 175 12 17 23 35 23 40 0 15 1774 1778 1820 1809 41 28 104 55 155 68
32 8 146 -3 200 -19z m-5540 -3262 c46 -15 185 -152 1775 -1740 949 -948 1729
-1723 1734 -1723 6 0 208 197 450 438 329 327 453 444 487 459 160 75 239 32
580 -313 268 -272 308 -329 309 -435 0 -100 -5 -106 -659 -762 -437 -438 -619
-615 -653 -633 -110 -56 -250 -65 -708 -44 -354 16 -424 31 -547 111 -26 18
-696 679 -1488 1470 -792 792 -1444 1439 -1450 1439 -5 0 -198 -188 -430 -419
-363 -362 -428 -422 -479 -446 -93 -44 -165 -38 -265 20 -14 7 -145 134 -292
281 -297 297 -329 340 -329 442 0 57 10 86 54 152 33 52 1528 1554 1626 1635
36 29 81 60 100 68 47 21 124 21 185 0z m-1289 -4024 c241 -61 491 -123 554
-139 389 -95 1098 -275 1170 -297 47 -14 97 -34 112 -44 14 -10 30 -19 34 -19
11 0 114 -102 114 -113 0 -5 9 -21 20 -36 22 -32 52 -132 115 -381 24 -96 80
-319 125 -495 45 -176 123 -486 175 -690 51 -203 114 -450 139 -548 49 -189
54 -242 32 -322 -29 -106 -48 -127 -576 -656 -452 -453 -522 -519 -574 -543
-92 -42 -179 -59 -271 -52 -101 7 -389 33 -477 42 -46 5 -78 3 -100 -6 -39
-15 -123 -93 -144 -132 -34 -65 -46 -51 430 -528 244 -245 457 -465 473 -490
60 -92 67 -169 23 -265 -17 -40 -88 -115 -339 -366 -264 -264 -325 -321 -373
-343 -68 -32 -127 -35 -200 -10 -50 17 -153 118 -1869 1832 -1270 1269 -1824
1828 -1841 1860 -50 93 -45 180 16 274 40 61 2449 2470 2512 2512 69 45 132
65 210 66 58 0 150 -20 510 -111z m-5454 -2779 c72 -45 578 -549 628 -625 56
-85 68 -145 45 -221 -18 -59 -20 -61 -1314 -1356 l-1295 -1297 88 -353 c49
-194 89 -354 90 -355 4 -5 680 -173 695 -173 9 0 513 498 1121 1106 608 608
1129 1124 1159 1146 130 98 225 104 531 36 176 -40 877 -194 1110 -244 41 -9
91 -19 110 -24 19 -4 82 -18 140 -30 171 -36 234 -64 306 -135 81 -80 102
-128 165 -384 120 -489 287 -1171 343 -1401 63 -257 60 -341 -20 -465 -19 -28
-709 -726 -1596 -1612 -1683 -1682 -1609 -1613 -1712 -1613 -104 0 -183 59
-487 367 -254 256 -297 309 -325 392 -15 47 -16 60 -4 105 7 28 24 69 38 91
14 22 629 644 1366 1382 l1341 1343 -29 117 c-15 65 -32 129 -36 143 -4 14
-32 120 -61 237 l-54 211 -30 5 c-16 2 -174 41 -350 86 l-319 81 -1131 -1128
c-807 -806 -1144 -1137 -1180 -1157 -27 -15 -72 -34 -100 -41 -58 -16 -172
-18 -224 -4 -20 5 -214 48 -431 95 -217 47 -415 90 -440 96 -712 156 -813 180
-863 204 -62 29 -187 154 -187 186 0 10 -4 20 -9 23 -5 3 -11 16 -14 28 -3 13
-26 104 -51 203 -48 193 -157 633 -255 1040 -34 138 -65 266 -70 285 -54 193
-64 250 -65 340 0 119 21 173 104 274 68 82 2915 2927 2975 2973 67 51 103 63
177 59 55 -3 76 -9 120 -36z"/>
<path d="M27007 27432 c-313 -313 -477 -484 -477 -497 0 -20 9 -53 74 -290 20
-71 52 -186 71 -255 19 -69 52 -192 75 -275 23 -82 55 -199 71 -260 56 -210
51 -200 122 -219 34 -9 127 -34 207 -57 80 -22 192 -54 250 -69 58 -16 155
-43 215 -60 61 -18 148 -42 195 -55 47 -13 143 -39 214 -59 70 -20 133 -36
140 -36 14 0 976 961 976 976 0 7 -7 34 -15 60 -8 27 -35 123 -60 214 -26 91
-55 194 -65 230 -10 36 -35 124 -55 195 -40 144 -72 260 -110 393 -13 48 -29
109 -36 135 -13 53 -30 66 -114 86 -27 6 -72 18 -100 26 -53 16 -230 65 -435
121 -149 40 -339 93 -470 129 -123 35 -162 44 -180 45 -8 0 -230 -215 -493
-478z"/>
<path d="M19667 20092 c-345 -345 -627 -632 -627 -637 0 -13 1502 -1515 1515
-1515 6 0 293 283 638 628 l628 628 -59 245 c-33 134 -81 332 -106 439 -26
107 -65 267 -86 355 -21 88 -40 169 -42 179 -2 16 -23 24 -103 43 -147 36
-166 40 -215 51 -98 22 -771 181 -860 203 -19 5 -40 9 -45 9 -6 0 -292 -282
-638 -628z"/>
</g>
</svg>
